<svg id="visual" viewBox="0 0 900 600" width="900" height="600" xmlns="http://www.w3.org/2000/svg" xmlns:xlink="http://www.w3.org/1999/xlink" version="1.1"><rect width="900" height="600" fill="#001829"></rect><g><g transform="translate(28 384)"><path d="M0 -32L25 -19.9L31.2 7.1L13.9 28.8L-13.9 28.8L-31.2 7.1L-25 -19.9Z" fill="none" stroke="#F7770F" stroke-width="2"></path></g><g transform="translate(472 481)"><path d="M0 -15L11.7 -9.4L14.6 3.3L6.5 13.5L-6.5 13.5L-14.6 3.3L-11.7 -9.4Z" stroke="#F7770F" fill="none" stroke-width="2"></path></g><g transform="translate(683 595)"><path d="M0 -17L13.3 -10.6L16.6 3.8L7.4 15.3L-7.4 15.3L-16.6 3.8L-13.3 -10.6Z" stroke="#F7770F" fill="none" stroke-width="2"></path></g><g transform="translate(27 572)"><path d="M0 -27L21.1 -16.8L26.3 6L11.7 24.3L-11.7 24.3L-26.3 6L-21.1 -16.8Z" stroke="#F7770F" fill="none" stroke-width="2"></path></g><g transform="translate(225 152)"><path d="M0 -30L23.5 -18.7L29.2 6.7L13 27L-13 27L-29.2 6.7L-23.5 -18.7Z" stroke="#F7770F" fill="none" stroke-width="2"></path></g><g transform="translate(514 216)"><path d="M0 -27L21.1 -16.8L26.3 6L11.7 24.3L-11.7 24.3L-26.3 6L-21.1 -16.8Z" stroke="#F7770F" fill="none" stroke-width="2"></path></g><g transform="translate(847 237)"><path d="M0 -27L21.1 -16.8L26.3 6L11.7 24.3L-11.7 24.3L-26.3 6L-21.1 -16.8Z" stroke="#F7770F" fill="none" stroke-width="2"></path></g><g transform="translate(835 580)"><path d="M0 -26L20.3 -16.2L25.3 5.8L11.3 23.4L-11.3 23.4L-25.3 5.8L-20.3 -16.2Z" stroke="#F7770F" fill="none" stroke-width="2"></path></g><g transform="translate(173 348)"><path d="M0 -19L14.9 -11.8L18.5 4.2L8.2 17.1L-8.2 17.1L-18.5 4.2L-14.9 -11.8Z" stroke="#F7770F" fill="none" stroke-width="2"></path></g><g transform="translate(112 144)"><path d="M0 -30L23.5 -18.7L29.2 6.7L13 27L-13 27L-29.2 6.7L-23.5 -18.7Z" stroke="#F7770F" fill="none" stroke-width="2"></path></g><g transform="translate(333 355)"><path d="M0 -23L18 -14.3L22.4 5.1L10 20.7L-10 20.7L-22.4 5.1L-18 -14.3Z" stroke="#F7770F" fill="none" stroke-width="2"></path></g><g transform="translate(191 594)"><path d="M0 -21L16.4 -13.1L20.5 4.7L9.1 18.9L-9.1 18.9L-20.5 4.7L-16.4 -13.1Z" stroke="#F7770F" fill="none" stroke-width="2"></path></g><g transform="translate(451 3)"><path d="M0 -16L12.5 -10L15.6 3.6L6.9 14.4L-6.9 14.4L-15.6 3.6L-12.5 -10Z" stroke="#F7770F" fill="none" stroke-width="2"></path></g><g transform="translate(708 488)"><path d="M0 -16L12.5 -10L15.6 3.6L6.9 14.4L-6.9 14.4L-15.6 3.6L-12.5 -10Z" stroke="#F7770F" fill="none" stroke-width="2"></path></g><g transform="translate(275 548)"><path d="M0 -18L14.1 -11.2L17.5 4L7.8 16.2L-7.8 16.2L-17.5 4L-14.1 -11.2Z" stroke="#F7770F" fill="none" stroke-width="2"></path></g><g transform="translate(560 62)"><path d="M0 -16L12.5 -10L15.6 3.6L6.9 14.4L-6.9 14.4L-15.6 3.6L-12.5 -10Z" stroke="#F7770F" fill="none" stroke-width="2"></path></g><g transform="translate(758 343)"><path d="M0 -28L21.9 -17.5L27.3 6.2L12.1 25.2L-12.1 25.2L-27.3 6.2L-21.9 -17.5Z" stroke="#F7770F" fill="none" stroke-width="2"></path></g><g transform="translate(755 412)"><path d="M0 -29L22.7 -18.1L28.3 6.5L12.6 26.1L-12.6 26.1L-28.3 6.5L-22.7 -18.1Z" stroke="#F7770F" fill="none" stroke-width="2"></path></g><g transform="translate(265 379)"><path d="M0 -26L20.3 -16.2L25.3 5.8L11.3 23.4L-11.3 23.4L-25.3 5.8L-20.3 -16.2Z" stroke="#F7770F" fill="none" stroke-width="2"></path></g><g transform="translate(511 119)"><path d="M0 -28L21.9 -17.5L27.3 6.2L12.1 25.2L-12.1 25.2L-27.3 6.2L-21.9 -17.5Z" stroke="#F7770F" fill="none" stroke-width="2"></path></g><g transform="translate(520 324)"><path d="M0 -24L18.8 -15L23.4 5.3L10.4 21.6L-10.4 21.6L-23.4 5.3L-18.8 -15Z" stroke="#F7770F" fill="none" stroke-width="2"></path></g><g transform="translate(179 479)"><path d="M0 -20L15.6 -12.5L19.5 4.5L8.7 18L-8.7 18L-19.5 4.5L-15.6 -12.5Z" stroke="#F7770F" fill="none" stroke-width="2"></path></g><g transform="translate(729 230)"><path d="M0 -24L18.8 -15L23.4 5.3L10.4 21.6L-10.4 21.6L-23.4 5.3L-18.8 -15Z" stroke="#F7770F" fill="none" stroke-width="2"></path></g><g transform="translate(586 330)"><path d="M0 -23L18 -14.3L22.4 5.1L10 20.7L-10 20.7L-22.4 5.1L-18 -14.3Z" stroke="#F7770F" fill="none" stroke-width="2"></path></g><g transform="translate(605 146)"><path d="M0 -27L21.1 -16.8L26.3 6L11.7 24.3L-11.7 24.3L-26.3 6L-21.1 -16.8Z" stroke="#F7770F" fill="none" stroke-width="2"></path></g><g transform="translate(35 223)"><path d="M0 -21L16.4 -13.1L20.5 4.7L9.1 18.9L-9.1 18.9L-20.5 4.7L-16.4 -13.1Z" stroke="#F7770F" fill="none" stroke-width="2"></path></g><g transform="translate(342 108)"><path d="M0 -27L21.1 -16.8L26.3 6L11.7 24.3L-11.7 24.3L-26.3 6L-21.1 -16.8Z" stroke="#F7770F" fill="none" stroke-width="2"></path></g><g transform="translate(71 8)"><path d="M0 -23L18 -14.3L22.4 5.1L10 20.7L-10 20.7L-22.4 5.1L-18 -14.3Z" stroke="#F7770F" fill="none" stroke-width="2"></path></g><g transform="translate(342 260)"><path d="M0 -17L13.3 -10.6L16.6 3.8L7.4 15.3L-7.4 15.3L-16.6 3.8L-13.3 -10.6Z" stroke="#F7770F" fill="none" stroke-width="2"></path></g><g transform="translate(242 46)"><path d="M0 -24L18.8 -15L23.4 5.3L10.4 21.6L-10.4 21.6L-23.4 5.3L-18.8 -15Z" stroke="#F7770F" fill="none" stroke-width="2"></path></g><g transform="translate(189 226)"><path d="M0 -17L13.3 -10.6L16.6 3.8L7.4 15.3L-7.4 15.3L-16.6 3.8L-13.3 -10.6Z" stroke="#F7770F" fill="none" stroke-width="2"></path></g><g transform="translate(670 197)"><path d="M0 -15L11.7 -9.4L14.6 3.3L6.5 13.5L-6.5 13.5L-14.6 3.3L-11.7 -9.4Z" stroke="#F7770F" fill="none" stroke-width="2"></path></g><g transform="translate(662 314)"><path d="M0 -25L19.5 -15.6L24.4 5.6L10.8 22.5L-10.8 22.5L-24.4 5.6L-19.5 -15.6Z" stroke="#F7770F" fill="none" stroke-width="2"></path></g><g transform="translate(346 562)"><path d="M0 -23L18 -14.3L22.4 5.1L10 20.7L-10 20.7L-22.4 5.1L-18 -14.3Z" stroke="#F7770F" fill="none" stroke-width="2"></path></g><g transform="translate(599 586)"><path d="M0 -23L18 -14.3L22.4 5.1L10 20.7L-10 20.7L-22.4 5.1L-18 -14.3Z" stroke="#F7770F" fill="none" stroke-width="2"></path></g><g transform="translate(754 540)"><path d="M0 -22L17.2 -13.7L21.4 4.9L9.5 19.8L-9.5 19.8L-21.4 4.9L-17.2 -13.7Z" stroke="#F7770F" fill="none" stroke-width="2"></path></g><g transform="translate(455 81)"><path d="M0 -22L17.2 -13.7L21.4 4.9L9.5 19.8L-9.5 19.8L-21.4 4.9L-17.2 -13.7Z" stroke="#F7770F" fill="none" stroke-width="2"></path></g><g transform="translate(451 172)"><path d="M0 -21L16.4 -13.1L20.5 4.7L9.1 18.9L-9.1 18.9L-20.5 4.7L-16.4 -13.1Z" stroke="#F7770F" fill="none" stroke-width="2"></path></g><g transform="translate(624 69)"><path d="M0 -24L18.8 -15L23.4 5.3L10.4 21.6L-10.4 21.6L-23.4 5.3L-18.8 -15Z" stroke="#F7770F" fill="none" stroke-width="2"></path></g><g transform="translate(887 359)"><path d="M0 -28L21.9 -17.5L27.3 6.2L12.1 25.2L-12.1 25.2L-27.3 6.2L-21.9 -17.5Z" stroke="#F7770F" fill="none" stroke-width="2"></path></g><g transform="translate(855 101)"><path d="M0 -24L18.8 -15L23.4 5.3L10.4 21.6L-10.4 21.6L-23.4 5.3L-18.8 -15Z" stroke="#F7770F" fill="none" stroke-width="2"></path></g><g transform="translate(415 408)"><path d="M0 -18L14.1 -11.2L17.5 4L7.8 16.2L-7.8 16.2L-17.5 4L-14.1 -11.2Z" stroke="#F7770F" fill="none" stroke-width="2"></path></g><g transform="translate(38 100)"><path d="M0 -20L15.6 -12.5L19.5 4.5L8.7 18L-8.7 18L-19.5 4.5L-15.6 -12.5Z" stroke="#F7770F" fill="none" stroke-width="2"></path></g><g transform="translate(143 4)"><path d="M0 -20L15.6 -12.5L19.5 4.5L8.7 18L-8.7 18L-19.5 4.5L-15.6 -12.5Z" stroke="#F7770F" fill="none" stroke-width="2"></path></g><g transform="translate(251 263)"><path d="M0 -27L21.1 -16.8L26.3 6L11.7 24.3L-11.7 24.3L-26.3 6L-21.1 -16.8Z" stroke="#F7770F" fill="none" stroke-width="2"></path></g><g transform="translate(605 414)"><path d="M0 -22L17.2 -13.7L21.4 4.9L9.5 19.8L-9.5 19.8L-21.4 4.9L-17.2 -13.7Z" stroke="#F7770F" fill="none" stroke-width="2"></path></g><g transform="translate(682 111)"><path d="M0 -15L11.7 -9.4L14.6 3.3L6.5 13.5L-6.5 13.5L-14.6 3.3L-11.7 -9.4Z" stroke="#F7770F" fill="none" stroke-width="2"></path></g><g transform="translate(586 487)"><path d="M0 -26L20.3 -16.2L25.3 5.8L11.3 23.4L-11.3 23.4L-25.3 5.8L-20.3 -16.2Z" stroke="#F7770F" fill="none" stroke-width="2"></path></g><g transform="translate(764 143)"><path d="M0 -28L21.9 -17.5L27.3 6.2L12.1 25.2L-12.1 25.2L-27.3 6.2L-21.9 -17.5Z" stroke="#F7770F" fill="none" stroke-width="2"></path></g><g transform="translate(110 69)"><path d="M0 -23L18 -14.3L22.4 5.1L10 20.7L-10 20.7L-22.4 5.1L-18 -14.3Z" stroke="#F7770F" fill="none" stroke-width="2"></path></g><g transform="translate(67 507)"><path d="M0 -19L14.9 -11.8L18.5 4.2L8.2 17.1L-8.2 17.1L-18.5 4.2L-14.9 -11.8Z" stroke="#F7770F" fill="none" stroke-width="2"></path></g><g transform="translate(885 520)"><path d="M0 -29L22.7 -18.1L28.3 6.5L12.6 26.1L-12.6 26.1L-28.3 6.5L-22.7 -18.1Z" stroke="#F7770F" fill="none" stroke-width="2"></path></g><g transform="translate(273 195)"><path d="M0 -18L14.1 -11.2L17.5 4L7.8 16.2L-7.8 16.2L-17.5 4L-14.1 -11.2Z" stroke="#F7770F" fill="none" stroke-width="2"></path></g><g transform="translate(833 416)"><path d="M0 -16L12.5 -10L15.6 3.6L6.9 14.4L-6.9 14.4L-15.6 3.6L-12.5 -10Z" stroke="#F7770F" fill="none" stroke-width="2"></path></g><g transform="translate(425 527)"><path d="M0 -22L17.2 -13.7L21.4 4.9L9.5 19.8L-9.5 19.8L-21.4 4.9L-17.2 -13.7Z" stroke="#F7770F" fill="none" stroke-width="2"></path></g><g transform="translate(720 55)"><path d="M0 -19L14.9 -11.8L18.5 4.2L8.2 17.1L-8.2 17.1L-18.5 4.2L-14.9 -11.8Z" stroke="#F7770F" fill="none" stroke-width="2"></path></g><g transform="translate(823 342)"><path d="M0 -20L15.6 -12.5L19.5 4.5L8.7 18L-8.7 18L-19.5 4.5L-15.6 -12.5Z" stroke="#F7770F" fill="none" stroke-width="2"></path></g><g transform="translate(68 280)"><path d="M0 -25L19.5 -15.6L24.4 5.6L10.8 22.5L-10.8 22.5L-24.4 5.6L-19.5 -15.6Z" stroke="#F7770F" fill="none" stroke-width="2"></path></g><g transform="translate(6 34)"><path d="M0 -24L18.8 -15L23.4 5.3L10.4 21.6L-10.4 21.6L-23.4 5.3L-18.8 -15Z" stroke="#F7770F" fill="none" stroke-width="2"></path></g><g transform="translate(134 534)"><path d="M0 -29L22.7 -18.1L28.3 6.5L12.6 26.1L-12.6 26.1L-28.3 6.5L-22.7 -18.1Z" stroke="#F7770F" fill="none" stroke-width="2"></path></g><g transform="translate(504 559)"><path d="M0 -27L21.1 -16.8L26.3 6L11.7 24.3L-11.7 24.3L-26.3 6L-21.1 -16.8Z" stroke="#F7770F" fill="none" stroke-width="2"></path></g><g transform="translate(449 277)"><path d="M0 -29L22.7 -18.1L28.3 6.5L12.6 26.1L-12.6 26.1L-28.3 6.5L-22.7 -18.1Z" stroke="#F7770F" fill="none" stroke-width="2"></path></g><g transform="translate(490 395)"><path d="M0 -23L18 -14.3L22.4 5.1L10 20.7L-10 20.7L-22.4 5.1L-18 -14.3Z" stroke="#F7770F" fill="none" stroke-width="2"></path></g><g transform="translate(354 482)"><path d="M0 -30L23.5 -18.7L29.2 6.7L13 27L-13 27L-29.2 6.7L-23.5 -18.7Z" stroke="#F7770F" fill="none" stroke-width="2"></path></g><g transform="translate(349 187)"><path d="M0 -23L18 -14.3L22.4 5.1L10 20.7L-10 20.7L-22.4 5.1L-18 -14.3Z" stroke="#F7770F" fill="none" stroke-width="2"></path></g><g transform="translate(381 26)"><path d="M0 -18L14.1 -11.2L17.5 4L7.8 16.2L-7.8 16.2L-17.5 4L-14.1 -11.2Z" stroke="#F7770F" fill="none" stroke-width="2"></path></g><g transform="translate(812 25)"><path d="M0 -17L13.3 -10.6L16.6 3.8L7.4 15.3L-7.4 15.3L-16.6 3.8L-13.3 -10.6Z" stroke="#F7770F" fill="none" stroke-width="2"></path></g><g transform="translate(78 438)"><path d="M0 -16L12.5 -10L15.6 3.6L6.9 14.4L-6.9 14.4L-15.6 3.6L-12.5 -10Z" stroke="#F7770F" fill="none" stroke-width="2"></path></g><g transform="translate(585 250)"><path d="M0 -16L12.5 -10L15.6 3.6L6.9 14.4L-6.9 14.4L-15.6 3.6L-12.5 -10Z" stroke="#F7770F" fill="none" stroke-width="2"></path></g><g transform="translate(94 586)"><path d="M0 -24L18.8 -15L23.4 5.3L10.4 21.6L-10.4 21.6L-23.4 5.3L-18.8 -15Z" stroke="#F7770F" fill="none" stroke-width="2"></path></g><g transform="translate(293 4)"><path d="M0 -26L20.3 -16.2L25.3 5.8L11.3 23.4L-11.3 23.4L-25.3 5.8L-20.3 -16.2Z" stroke="#F7770F" fill="none" stroke-width="2"></path></g><g transform="translate(126 208)"><path d="M0 -17L13.3 -10.6L16.6 3.8L7.4 15.3L-7.4 15.3L-16.6 3.8L-13.3 -10.6Z" stroke="#F7770F" fill="none" stroke-width="2"></path></g><g transform="translate(406 596)"><path d="M0 -29L22.7 -18.1L28.3 6.5L12.6 26.1L-12.6 26.1L-28.3 6.5L-22.7 -18.1Z" stroke="#F7770F" fill="none" stroke-width="2"></path></g><g transform="translate(869 170)"><path d="M0 -30L23.5 -18.7L29.2 6.7L13 27L-13 27L-29.2 6.7L-23.5 -18.7Z" stroke="#F7770F" fill="none" stroke-width="2"></path></g><g transform="translate(8 447)"><path d="M0 -15L11.7 -9.4L14.6 3.3L6.5 13.5L-6.5 13.5L-14.6 3.3L-11.7 -9.4Z" stroke="#F7770F" fill="none" stroke-width="2"></path></g><g transform="translate(4 310)"><path d="M0 -20L15.6 -12.5L19.5 4.5L8.7 18L-8.7 18L-19.5 4.5L-15.6 -12.5Z" stroke="#F7770F" fill="none" stroke-width="2"></path></g><g transform="translate(528 6)"><path d="M0 -30L23.5 -18.7L29.2 6.7L13 27L-13 27L-29.2 6.7L-23.5 -18.7Z" stroke="#F7770F" fill="none" stroke-width="2"></path></g><g transform="translate(813 514)"><path d="M0 -16L12.5 -10L15.6 3.6L6.9 14.4L-6.9 14.4L-15.6 3.6L-12.5 -10Z" stroke="#F7770F" fill="none" stroke-width="2"></path></g><g transform="translate(250 441)"><path d="M0 -25L19.5 -15.6L24.4 5.6L10.8 22.5L-10.8 22.5L-24.4 5.6L-19.5 -15.6Z" stroke="#F7770F" fill="none" stroke-width="2"></path></g><g transform="translate(179 77)"><path d="M0 -15L11.7 -9.4L14.6 3.3L6.5 13.5L-6.5 13.5L-14.6 3.3L-11.7 -9.4Z" stroke="#F7770F" fill="none" stroke-width="2"></path></g><g transform="translate(146 278)"><path d="M0 -25L19.5 -15.6L24.4 5.6L10.8 22.5L-10.8 22.5L-24.4 5.6L-19.5 -15.6Z" stroke="#F7770F" fill="none" stroke-width="2"></path></g><g transform="translate(111 378)"><path d="M0 -24L18.8 -15L23.4 5.3L10.4 21.6L-10.4 21.6L-23.4 5.3L-18.8 -15Z" stroke="#F7770F" fill="none" stroke-width="2"></path></g><g transform="translate(670 11)"><path d="M0 -21L16.4 -13.1L20.5 4.7L9.1 18.9L-9.1 18.9L-20.5 4.7L-16.4 -13.1Z" stroke="#F7770F" fill="none" stroke-width="2"></path></g><g transform="translate(399 341)"><path d="M0 -30L23.5 -18.7L29.2 6.7L13 27L-13 27L-29.2 6.7L-23.5 -18.7Z" stroke="#F7770F" fill="none" stroke-width="2"></path></g><g transform="translate(6 158)"><path d="M0 -30L23.5 -18.7L29.2 6.7L13 27L-13 27L-29.2 6.7L-23.5 -18.7Z" stroke="#F7770F" fill="none" stroke-width="2"></path></g><g transform="translate(875 8)"><path d="M0 -30L23.5 -18.7L29.2 6.7L13 27L-13 27L-29.2 6.7L-23.5 -18.7Z" stroke="#F7770F" fill="none" stroke-width="2"></path></g><g transform="translate(781 278)"><path d="M0 -27L21.1 -16.8L26.3 6L11.7 24.3L-11.7 24.3L-26.3 6L-21.1 -16.8Z" stroke="#F7770F" fill="none" stroke-width="2"></path></g><g transform="translate(676 412)"><path d="M0 -16L12.5 -10L15.6 3.6L6.9 14.4L-6.9 14.4L-15.6 3.6L-12.5 -10Z" stroke="#F7770F" fill="none" stroke-width="2"></path></g><g transform="translate(893 288)"><path d="M0 -29L22.7 -18.1L28.3 6.5L12.6 26.1L-12.6 26.1L-28.3 6.5L-22.7 -18.1Z" stroke="#F7770F" fill="none" stroke-width="2"></path></g><g transform="translate(645 535)"><path d="M0 -25L19.5 -15.6L24.4 5.6L10.8 22.5L-10.8 22.5L-24.4 5.6L-19.5 -15.6Z" stroke="#F7770F" fill="none" stroke-width="2"></path></g><g transform="translate(890 447)"><path d="M0 -22L17.2 -13.7L21.4 4.9L9.5 19.8L-9.5 19.8L-21.4 4.9L-17.2 -13.7Z" stroke="#F7770F" fill="none" stroke-width="2"></path></g><g transform="translate(595 4)"><path d="M0 -18L14.1 -11.2L17.5 4L7.8 16.2L-7.8 16.2L-17.5 4L-14.1 -11.2Z" stroke="#F7770F" fill="none" stroke-width="2"></path></g><g transform="translate(276 110)"><path d="M0 -19L14.9 -11.8L18.5 4.2L8.2 17.1L-8.2 17.1L-18.5 4.2L-14.9 -11.8Z" stroke="#F7770F" fill="none" stroke-width="2"></path></g><g transform="translate(405 124)"><path d="M0 -24L18.8 -15L23.4 5.3L10.4 21.6L-10.4 21.6L-23.4 5.3L-18.8 -15Z" stroke="#F7770F" fill="none" stroke-width="2"></path></g><g transform="translate(327 423)"><path d="M0 -30L23.5 -18.7L29.2 6.7L13 27L-13 27L-29.2 6.7L-23.5 -18.7Z" stroke="#F7770F" fill="none" stroke-width="2"></path></g><g transform="translate(403 231)"><path d="M0 -24L18.8 -15L23.4 5.3L10.4 21.6L-10.4 21.6L-23.4 5.3L-18.8 -15Z" stroke="#F7770F" fill="none" stroke-width="2"></path></g><g transform="translate(185 411)"><path d="M0 -29L22.7 -18.1L28.3 6.5L12.6 26.1L-12.6 26.1L-28.3 6.5L-22.7 -18.1Z" stroke="#F7770F" fill="none" stroke-width="2"></path></g></g></svg>